<svg width="1762" height="745" viewBox="0 0 1762 745" fill="none" xmlns="http://www.w3.org/2000/svg">
<rect width="1762" height="745" fill="#FA9538"/>
<path d="M65 47H1705V693H65V47Z" fill="#FA9538" stroke="black" stroke-width="12"/>
<rect x="74" y="59" width="534" height="310" fill="#20FF0D" stroke="black" stroke-width="4"/>
<rect x="139" y="128" width="29" height="156" rx="14.5" fill="#7E4807"/>
<rect x="367.5" y="79.5" width="176" height="105" rx="41.5" fill="#E4CBAC" stroke="black"/>
<line x1="387.977" y1="98.0001" x2="519.977" y2="97.0001" stroke="black" stroke-width="6"/>
<line x1="387.977" y1="116" x2="519.977" y2="115" stroke="black" stroke-width="6"/>
<path d="M388 153L454 152.5L520 152" stroke="black" stroke-width="6"/>
<path d="M388 169L454 168.5L520 168" stroke="black" stroke-width="6"/>
<path d="M387.977 135L519.977 134" stroke="black" stroke-width="6"/>
<rect x="612" y="59" width="534" height="310" fill="#20FF0D" stroke="black" stroke-width="4"/>
<rect x="677" y="128" width="29" height="156" rx="14.5" fill="#7E4807"/>
<rect x="905.5" y="79.5" width="176" height="105" rx="41.5" fill="#E4CBAC" stroke="black"/>
<line x1="925.977" y1="98.0001" x2="1057.98" y2="97.0001" stroke="black" stroke-width="6"/>
<line x1="925.977" y1="116" x2="1057.98" y2="115" stroke="black" stroke-width="6"/>
<path d="M926 153L992 152.5L1058 152" stroke="black" stroke-width="6"/>
<path d="M926 169L992 168.5L1058 168" stroke="black" stroke-width="6"/>
<path d="M925.977 135L1057.98 134" stroke="black" stroke-width="6"/>
<rect x="1150" y="59" width="534" height="310" fill="#20FF0D" stroke="black" stroke-width="4"/>
<rect x="1215" y="128" width="29" height="156" rx="14.5" fill="#7E4807"/>
<rect x="1443.5" y="79.5" width="176" height="105" rx="41.5" fill="#E4CBAC" stroke="black"/>
<line x1="1463.98" y1="98.0001" x2="1595.98" y2="97.0001" stroke="black" stroke-width="6"/>
<line x1="1463.98" y1="116" x2="1595.98" y2="115" stroke="black" stroke-width="6"/>
<path d="M1464 153L1530 152.5L1596 152" stroke="black" stroke-width="6"/>
<path d="M1464 169L1530 168.5L1596 168" stroke="black" stroke-width="6"/>
<path d="M1463.98 135L1595.98 134" stroke="black" stroke-width="6"/>
<rect x="74" y="373" width="534" height="310" fill="#20FF0D" stroke="black" stroke-width="4"/>
<rect x="139" y="442" width="29" height="156" rx="14.5" fill="#7E4807"/>
<rect x="367.5" y="393.5" width="176" height="105" rx="41.5" fill="#E4CBAC" stroke="black"/>
<line x1="387.977" y1="412" x2="519.977" y2="411" stroke="black" stroke-width="6"/>
<line x1="387.977" y1="430" x2="519.977" y2="429" stroke="black" stroke-width="6"/>
<path d="M388 467L454 466.5L520 466" stroke="black" stroke-width="6"/>
<path d="M388 483L454 482.5L520 482" stroke="black" stroke-width="6"/>
<path d="M387.977 449L519.977 448" stroke="black" stroke-width="6"/>
<rect x="612" y="373" width="534" height="310" fill="#20FF0D" stroke="black" stroke-width="4"/>
<rect x="677" y="442" width="29" height="156" rx="14.5" fill="#7E4807"/>
<rect x="905.5" y="393.5" width="176" height="105" rx="41.5" fill="#E4CBAC" stroke="black"/>
<line x1="925.977" y1="412" x2="1057.98" y2="411" stroke="black" stroke-width="6"/>
<line x1="925.977" y1="430" x2="1057.98" y2="429" stroke="black" stroke-width="6"/>
<path d="M926 467L992 466.5L1058 466" stroke="black" stroke-width="6"/>
<path d="M926 483L992 482.5L1058 482" stroke="black" stroke-width="6"/>
<path d="M925.977 449L1057.98 448" stroke="black" stroke-width="6"/>
<rect x="1150" y="373" width="534" height="310" fill="#20FF0D" stroke="black" stroke-width="4"/>
<rect x="1215" y="442" width="29" height="156" rx="14.5" fill="#7E4807"/>
<rect x="1443.5" y="393.5" width="176" height="105" rx="41.5" fill="#E4CBAC" stroke="black"/>
<line x1="1463.98" y1="412" x2="1595.98" y2="411" stroke="black" stroke-width="6"/>
<line x1="1463.98" y1="430" x2="1595.98" y2="429" stroke="black" stroke-width="6"/>
<path d="M1464 467L1530 466.5L1596 466" stroke="black" stroke-width="6"/>
<path d="M1464 483L1530 482.5L1596 482" stroke="black" stroke-width="6"/>
<path d="M1463.98 449L1595.98 448" stroke="black" stroke-width="6"/>
</svg>
